<svg xmlns="http://www.w3.org/2000/svg" width="195" height="168.815" viewBox="0 0 195 168.815"><defs><style>.a{fill:#f6f6f6;}.b{fill:#fff;}</style></defs><title>bg-pattern-web_allgem</title><rect class="a" y="0.041" width="195" height="168.734"/><path class="b" d="M195-.031H163.892l-.006-.01h-2.361l.006.01h-.088L178.286,29.14,163.239,55.209,132.067.993l.6-1.034H97.505l0,.01H66.392l0-.01H64.026l.005.01h-.087L80.786,29.14,65.739,55.209,34.567.993l.6-1.034H.006L0-.031V2.014H32.727L47.787,28.1H0v2.07H15.189L0,56.465v4.094L.725,59.3,15.132,84.358h-.083l16.839,29.176L16.842,139.6,2.433,114.537h0l-.2-.337L0,110.306v4.231H.07l15.592,27.118L0,168.765H0v.01H35.153l14.47-25.066,14.406,25.056h-.085l0,.01h68.7l14.47-25.066,14.407,25.056h-.086l.006.01H195v-.01H163.891L148.154,141.4l15.515-26.858H195v-4.23L180.669,85.382,195,60.557V56.464L178.888,84.358H148.767l31.3-54.187H195V28.1H180.066l-15-26.086H195V-.032ZM67.568,2.014h62.658L145.287,28.1H82.566Zm15,28.157,30.121,0-31.3,54.189H51.267Zm46.821,83.361L114.342,139.6,83.17,85.382,98.225,59.3l14.407,25.056h-.086ZM1.909,57.251,17.567,30.145h31.4l15.59,27.117L48.9,84.358H17.494ZM18.672,86.406H47.721v0H81.333l15.057,26.08H33.668Zm13.817,82.347H2.371l31.3-54.189,30.119,0Zm33.9.012L50.655,141.4l15.514-26.858h31.4l15.592,27.118L97.5,168.765Zm63.6-.012H99.871l31.3-54.189,30.118,0Zm48.844-82.344,15.056,26.08H131.168l-15-26.083h29.05l0,0ZM146.4,84.358h-31.41L99.409,57.251l15.658-27.106h31.4l15.591,27.117Z" transform="translate(0 0.041)"/></svg>